<svg width="127" height="57" viewBox="0 0 127 57" fill="none" xmlns="http://www.w3.org/2000/svg">
<path d="M8.52836 1.36341C3.39953 2.82012 1.00202 6.21911 0.698541 12.5315C0.516452 16.6589 0.941326 18.9046 2.54978 22.0001C3.85475 24.4887 5.4632 26.2792 12.7771 33.229C16.4492 36.719 17.3293 38.2971 17.5418 41.6961C17.7238 44.7006 17.3293 46.3394 16.1154 47.4926C15.3263 48.2513 14.9015 48.403 13.293 48.4941C9.80298 48.6762 8.52836 47.1891 8.28558 42.5458L8.13383 39.6931L6.58608 39.8752C5.73633 39.9662 4.03684 40.1483 2.79256 40.2394L0.577148 40.4518L0.698541 44.1239C0.819934 47.3408 0.941326 48.0389 1.66968 49.6777C3.7637 54.2906 9.04428 56.6881 15.2656 55.8687C19.7268 55.2617 22.9437 53.1373 24.5825 49.7687C25.3412 48.1602 25.3716 47.9175 25.3716 42.6369C25.3716 37.6598 25.3109 37.0225 24.6736 35.4444C23.1865 31.7723 21.0621 29.223 14.2945 23.032C9.4995 18.6315 7.95175 15.445 8.80149 11.6818C9.31741 9.34497 10.4099 8.49522 12.7771 8.49522C14.2338 8.49522 14.7194 8.64697 15.4781 9.28428C16.5099 10.134 17.0258 11.5907 17.0258 13.6241V14.9594L19.6965 14.7469C21.1532 14.6255 22.8527 14.4435 23.5203 14.3524L24.6736 14.1703L24.5522 11.5604C24.3094 6.82608 22.0029 3.33604 18.0577 1.81863C15.7512 0.908188 11.0169 0.695751 8.52836 1.36341Z" fill="#ADAEB3"/>
<path d="M53.4438 1.21318C49.9234 2.09327 47.5259 3.97486 46.1299 6.91863C45.2498 8.76987 45.1284 9.25544 45.007 12.5937C44.7339 20.0897 46.6761 23.7011 54.9612 31.1364C58.9975 34.7782 61.0612 37.2971 61.6378 39.3911C62.093 41.0906 62.0019 44.7324 61.486 46.0374C60.7273 47.8583 59.7258 48.4045 57.2069 48.4045C55.4467 48.4045 54.9005 48.2831 54.3542 47.7976C53.201 46.7354 52.7761 45.5518 52.6244 42.608C52.503 40.9389 52.3209 39.7553 52.1388 39.7553C51.9567 39.7553 50.2572 39.9071 48.3756 40.0891L44.9463 40.4533V43.3667C44.9463 49.315 46.8886 52.8657 51.198 54.8383C54.1418 56.1737 59.6955 56.3254 63.0641 55.1115C68.1323 53.3209 70.4994 48.5259 69.9835 41.121C69.5586 35.021 67.3129 30.7723 62.0626 26.2504C60.9094 25.2489 58.785 23.2459 57.298 21.7892C53.5652 18.0867 52.3816 15.2947 53.1403 11.7136C53.6259 9.40718 54.688 8.49673 56.9338 8.49673C57.8442 8.49673 58.9064 8.64847 59.3313 8.86091C60.4238 9.34648 61.3343 11.3798 61.3343 13.2917C61.3343 14.8698 61.3343 14.8698 62.3358 14.8698C63.6711 14.8698 68.7089 14.2629 68.891 14.1111C69.2248 13.747 68.8303 9.77135 68.284 7.98081C67.4646 5.31018 65.0975 2.85198 62.3965 1.82014C60.3935 1.06144 55.3861 0.697262 53.4438 1.21318Z" fill="#ADAEB3"/>
<path d="M31.0771 1.7267C30.7737 1.84809 30.6826 7.49284 30.6826 28.5545V55.2305H34.6279H38.5731V28.3724V1.51426L35.0224 1.54461C33.0498 1.54461 31.2592 1.63565 31.0771 1.7267Z" fill="#ADAEB3"/>
<path d="M72.8662 5.45952V9.37443L74.8085 9.19234C75.8707 9.1013 77.7826 9.13164 79.0572 9.25304L81.3637 9.46547V32.348V55.2305H85.4607H89.5577V32.3176C89.5577 14.1998 89.6487 9.40478 89.9522 9.37443C90.1343 9.34408 92.0462 9.37443 94.201 9.40478L98.0552 9.46547V5.48986V1.51426H85.4607H72.8662V5.45952Z" fill="#ADAEB3"/>
<path d="M107.646 1.75866C107.433 2.12284 106.826 5.40044 104.125 20.6352C102.79 28.2222 101.394 35.9307 101.09 37.7819C100.757 39.6028 100.483 41.2719 100.483 41.4844C100.483 41.7879 102.942 41.8789 112.623 41.8789C124.307 41.8789 124.762 41.8486 124.762 41.3023C124.762 40.7864 123.882 35.7486 120.544 16.9934C119.876 13.2303 119.056 8.5263 118.692 6.52332C117.751 0.999962 118.358 1.51588 112.653 1.51588C109.982 1.51588 107.737 1.63727 107.646 1.75866ZM113.685 18.9661C114.14 22.1223 114.838 26.8566 115.233 29.4362C115.627 32.0158 115.961 34.2312 115.961 34.3526C115.961 34.5043 114.474 34.5954 112.623 34.5954C109.831 34.5954 109.284 34.5043 109.284 34.1401C109.284 33.867 109.831 30.1645 110.468 25.8551C111.105 21.576 111.834 16.8417 112.046 15.385C112.258 13.9283 112.501 12.8357 112.623 12.9571C112.744 13.0785 113.199 15.7795 113.685 18.9661Z" fill="#ADAEB3"/>
<path d="M99.4211 48.6146C99.239 49.525 98.3589 54.7146 98.3589 54.9877C98.3589 55.1394 104.793 55.2305 112.623 55.2305H126.886L126.856 54.5325C126.856 54.1683 126.613 52.5598 126.34 50.9817L125.824 48.0987L112.714 48.0076L99.5728 47.9469L99.4211 48.6146Z" fill="#ADAEB3"/>
</svg>
