<svg width="208" height="65" viewBox="0 0 208 65" fill="none" xmlns="http://www.w3.org/2000/svg">
<g clip-path="url(#clip0_3689_12133)">
<path d="M208 32.8288C203.466 32.8288 198.913 32.8618 194.399 32.7191C192.763 32.6697 192.557 33.383 192.777 34.9742C193.7 41.6793 197.871 44.7191 203.992 43.073C204.901 42.8206 205.795 42.4804 206.67 42.1841C206.776 42.3984 206.858 42.627 206.914 42.8645C207.23 47.5723 207.23 47.5943 203.179 48.3515C200.433 48.9249 197.619 48.9249 194.872 48.3515C184.556 46.0854 179.673 30.9194 186.24 21.4269C189.344 16.9386 193.653 16.132 198.306 16.7849C202.72 17.4105 205.81 20.0387 207.354 24.9002C207.507 25.3775 207.397 26.0415 208.005 26.2335L208 32.8288ZM195.566 28.0936C196.522 27.2541 198.555 29.2952 198.512 26.2664C198.469 23.2376 197.392 21.1855 195.824 21.1635C194.255 21.1416 192.701 23.8192 192.825 26.6779C192.94 29.1965 194.757 27.2157 195.57 28.0936H195.566Z" fill="#ADAEB3"/>
<path d="M60.776 0.5C61.0533 1.38889 61.8472 1.09808 62.3829 1.38889C64.7167 2.65638 65.9841 5.37242 65.4054 8.08847C65.1228 9.37786 64.4667 10.5188 63.5448 11.3244C62.6228 12.1299 61.4897 12.5521 60.3312 12.5219C59.2131 12.4803 58.139 12.0128 57.2782 11.1931C56.4174 10.3735 55.819 9.24832 55.5774 7.9952C55.3321 6.64637 55.507 5.24157 56.0715 4.02542C56.636 2.80927 57.5545 1.85879 58.6669 1.33951C59.2073 1.05418 60.0012 1.39438 60.2977 0.5H60.776Z" fill="#ADAEB3"/>
<path d="M27.882 38.831C27.882 32.5319 27.9251 26.2384 27.8533 19.9393C27.8533 18.2603 28.0925 17.4702 29.7663 17.5306C33.5015 17.6732 37.2461 17.5305 40.9861 17.6019C46.6103 17.739 50.2258 21.0477 51.6988 27.2754C52.4911 30.7332 52.5892 34.3522 51.9858 37.8598C50.9671 44.1094 47.1698 47.4236 40.9861 47.7363C37.2414 47.9229 37.2414 47.9229 37.2414 52.1259C37.1739 54.0462 37.193 55.9692 37.2988 57.8872C37.5044 60.082 36.7009 60.5594 34.9984 60.4057C33.3317 60.2602 31.6578 60.2602 29.9911 60.4057C28.3364 60.5539 27.8103 59.9284 27.8438 57.986C27.9442 51.6046 27.882 45.2178 27.882 38.831ZM37.2653 32.4441C37.2653 35.0834 37.2222 37.7226 37.2653 40.3618C37.2653 41.2946 36.787 42.617 37.6957 43.1053C38.767 43.654 39.8956 43.0175 40.7374 42.1122C41.2783 41.5796 41.7026 40.9086 41.976 40.1533C43.4587 35.3041 43.4249 30.0141 41.8804 25.1904C41.6596 24.4549 41.2788 23.7963 40.7742 23.2768C40.2695 22.7574 39.6577 22.3943 38.9965 22.2219C37.777 21.8543 37.2222 22.1231 37.2557 23.7034C37.3083 26.6115 37.2653 29.536 37.2653 32.4441Z" fill="#ADAEB3"/>
<path d="M0.0432994 26.2514C0.0432994 20.0511 0.110253 13.8454 0.00503858 7.64509C-0.0284388 5.67527 0.320682 4.74798 2.20498 5.01135C4.47188 5.32411 7.43224 3.91396 8.86221 5.59846C10.1583 7.1403 9.13481 10.4709 9.23524 13.0113C9.23524 13.2802 9.23524 13.5601 9.23524 13.8289C9.23524 17.4942 9.23524 17.4942 12.3104 17.5875C21.3493 17.8618 25.8305 24.6547 24.2666 35.6945C23.0614 44.106 19.3598 47.7658 11.9613 47.7658C8.6996 47.7658 5.43316 47.6725 2.17151 47.8097C0.526329 47.8756 -0.00930845 47.3433 0.024169 45.3954C0.110254 39.0251 0.0432994 32.6492 0.0432994 26.2514ZM9.23524 32.4572C9.23524 35.2006 9.20176 37.9441 9.23524 40.6876C9.23524 41.5271 8.75699 42.6739 9.71349 43.1458C10.67 43.6177 11.5978 43.0909 12.406 42.4654C13.2275 41.8539 13.8366 40.9318 14.1277 39.8591C15.3916 35.2192 15.4216 30.2525 14.2138 25.593C14.0101 24.7968 13.6297 24.0749 13.11 23.4978C12.5903 22.9208 11.9489 22.5083 11.2487 22.3008C9.86175 21.8125 9.15872 22.0429 9.23046 23.9743C9.31176 26.7891 9.23524 29.6259 9.23524 32.4572Z" fill="#ADAEB3"/>
<path d="M130.098 32.5786C130.098 28.189 130.098 23.7994 130.098 19.4483C130.098 18.307 130.194 17.5114 131.475 17.5608C136.397 17.7473 141.337 17.1986 146.244 18.0436C151.949 19.0203 154.417 22.2686 154.455 28.9298C154.489 34.4935 154.417 40.0573 154.493 45.6156C154.517 47.2617 154.159 47.9256 152.647 47.8104C150.821 47.6815 148.989 47.6815 147.162 47.8104C145.727 47.9092 145.249 47.3495 145.249 45.6595C145.335 40.5566 145.316 35.4483 145.249 30.3399C145.225 28.7929 145.076 27.2518 144.804 25.7363C144.699 25.0579 144.434 24.4252 144.039 23.9062C143.644 23.3871 143.133 23.0012 142.561 22.7898C140.031 21.7473 139.29 22.3015 139.285 25.3468C139.285 32.0957 139.252 38.8447 139.314 45.5937C139.314 47.1959 138.993 47.9256 137.468 47.8159C135.642 47.6678 133.809 47.6678 131.982 47.8159C130.304 47.9641 130.021 47.1026 130.069 45.4346C130.155 41.1492 130.098 36.8639 130.098 32.5786Z" fill="#ADAEB3"/>
<path d="M125.191 36.7407C125.191 39.7475 125.129 42.7763 125.215 45.7667C125.263 47.3305 124.794 47.8353 123.441 47.8079C118.658 47.7146 113.876 47.8463 109.122 47.6707C104.899 47.5171 102.23 44.9821 101.518 40.8669C100.647 35.8189 102.407 31.5006 106.2 29.432C108.68 28.1637 111.39 27.5991 114.1 27.786C115.707 27.8408 116.037 27.0562 115.765 25.4814C115.334 22.9958 113.947 21.7174 111.848 21.3772C110.083 21.0918 108.371 21.5143 106.654 21.9533C105.994 22.1234 104.803 23.3799 104.741 21.5253C104.684 20.2139 103.718 18.074 105.635 17.5692C110.332 16.3291 115.095 15.8243 119.715 18.0027C123.455 19.7695 125.062 23.2647 125.172 27.7311C125.248 30.7379 125.172 33.7667 125.172 36.7626L125.191 36.7407ZM115.846 37.5857C115.846 36.4883 115.846 35.3909 115.846 34.2935C115.812 31.956 115.325 31.6268 113.455 32.6474C110.762 34.0905 109.629 39.2318 111.489 41.8545C111.927 42.4588 112.51 42.9006 113.167 43.1243C113.823 43.3479 114.522 43.3433 115.176 43.111C116.449 42.7544 115.717 41.2839 115.841 40.3182C115.9 39.4087 115.902 38.4954 115.846 37.5857Z" fill="#ADAEB3"/>
<path d="M70.4031 30.9088C70.4031 26.3491 70.36 21.7895 70.4031 17.2298C70.4892 10.0967 73.5499 6.25587 79.7002 5.43282C81.355 5.21883 83.048 5.09264 84.6931 5.04874C87.0174 4.98839 87.8448 6.39304 87.1322 8.94997C86.7257 10.415 85.6975 9.74009 84.9275 9.80593C81.0345 10.1516 79.5663 11.8635 79.7002 15.8416C79.7433 17.1365 80.0876 17.6688 81.2258 17.57C82.015 17.4987 82.8328 17.6742 83.6171 17.5371C85.7596 17.153 86.1088 18.3656 86.037 20.4891C85.9796 22.1352 85.4536 22.4205 84.1814 22.4424C79.7337 22.5302 79.7433 22.5851 79.7337 27.6002C79.7337 33.5261 79.6333 39.452 79.7337 45.378C79.7624 47.3368 79.1933 47.9349 77.5529 47.7977C75.8861 47.655 74.2124 47.655 72.5456 47.7977C70.9148 47.9349 70.3313 47.3533 70.3792 45.3889C70.4844 40.5714 70.4031 35.7373 70.4031 30.9088Z" fill="#ADAEB3"/>
<path d="M177.756 29.4037C177.437 29.3788 177.118 29.3788 176.799 29.4037C174.374 29.8043 172.729 29.1952 173.126 25.8043C173.158 25.4319 173.114 25.0563 172.997 24.7069C172.548 23.165 172.289 21.2885 170.482 21.1842C168.674 21.08 168.09 22.759 167.708 24.3722C166.633 28.7954 166.725 33.4846 167.971 37.8482C169.305 42.5889 173.499 44.4325 178.707 43.0937C179.544 42.8852 180.931 40.9867 181.448 43.2967C182.165 46.5066 181.529 47.5766 179.2 48.0594C175.656 48.7947 172.098 49.1184 168.54 48.1746C163.923 46.9675 160.795 43.8033 159.157 38.6822C157.862 34.6275 157.741 30.2018 158.812 26.0622C161.127 16.6849 172.921 13.2007 179.052 20.0265C180.716 21.8756 181.577 24.1746 182.055 26.7261C182.399 28.5862 182.175 29.7768 180.142 29.4421C179.349 29.3634 178.551 29.3506 177.756 29.4037Z" fill="#ADAEB3"/>
<path d="M87.0079 36.328C87.0079 33.6833 87.0079 31.0385 87.0079 28.3938C87.0079 23.0879 89.1217 19.708 93.469 17.793C95.122 17.1337 96.8448 16.7333 98.5911 16.6023C101.432 16.2841 101.743 16.723 101.537 19.9439C101.47 20.959 101.14 21.2608 100.337 21.5571C97.1037 22.7587 96.2285 24.1963 96.2094 28.1798C96.2094 33.9192 96.1329 39.6695 96.2429 45.4089C96.2811 47.3678 95.7216 47.9494 94.0812 47.8122C92.2543 47.6887 90.4226 47.6887 88.5957 47.8122C87.3235 47.8781 86.9505 47.3129 86.984 45.9082C87.0557 42.7093 87.0079 39.5159 87.0079 36.328Z" fill="#ADAEB3"/>
<path d="M55.9121 32.5365C55.9121 28.2567 55.9742 23.9714 55.8786 19.697C55.8451 18.0016 56.3234 17.4474 57.7916 17.5462C59.7046 17.6669 61.6176 17.6449 63.5306 17.5462C64.7884 17.4858 65.1662 18.018 65.1614 19.4337C65.1136 28.2677 65.1136 37.1035 65.1614 45.9412C65.1614 47.3898 64.7405 47.8507 63.5162 47.7958C61.5315 47.7135 59.5372 47.708 57.5572 47.7958C56.309 47.8507 55.9025 47.3459 55.9216 45.9193C55.9551 41.4693 55.9121 37.0029 55.9121 32.5365Z" fill="#ADAEB3"/>
<path d="M60.4601 52.9895C61.1146 52.9742 61.7652 53.1077 62.3745 53.3824C62.9838 53.657 63.5396 54.0673 64.01 54.5897C64.4804 55.112 64.856 55.736 65.1152 56.4257C65.3743 57.1154 65.5119 57.8571 65.52 58.6081C65.5324 60.1237 65.031 61.5855 64.1218 62.685C63.2125 63.7845 61.9664 64.4357 60.6466 64.5011C59.9722 64.518 59.3016 64.3797 58.6746 64.0943C58.0475 63.809 57.4766 63.3824 56.9956 62.8397C56.5146 62.2971 56.1332 61.6493 55.874 60.9348C55.6148 60.2203 55.483 59.4534 55.4863 58.6794C55.4773 57.928 55.5998 57.182 55.8468 56.4859C56.0937 55.7898 56.4599 55.1577 56.9238 54.627C57.3877 54.0963 57.9397 53.678 58.5472 53.3967C59.1546 53.1154 59.8051 52.9769 60.4601 52.9895Z" fill="#ADAEB3"/>
</g>
<defs>
<clipPath id="clip0_3689_12133">
<rect width="208" height="64" fill="white" transform="translate(0 0.5)"/>
</clipPath>
</defs>
</svg>
