<svg width="169" height="49" viewBox="0 0 169 49" fill="none" xmlns="http://www.w3.org/2000/svg">
<g clip-path="url(#clip0_3689_12153)">
<path d="M79.1659 42.9057C79.2057 43.7823 79.2494 44.4095 79.2574 45.0368C79.2852 48.5805 78.3383 49.5651 74.9603 48.7134C73.1341 48.2481 70.8701 47.4214 69.8794 45.9591C65.8807 40.0517 62.3197 33.8327 58.341 27.3354C60.1951 27.2025 61.3887 27.1858 62.5664 27.0197C66.0797 26.5295 68.276 23.9247 68.5346 20.0487C68.7574 16.4594 66.8157 13.2066 63.5014 12.571C60.577 12.006 57.5332 12.1015 54.2945 11.8896V44.0274H48.7242C48.6337 43.4637 48.5753 42.8949 48.5492 42.3241C48.5492 32.4119 48.5253 22.504 48.5492 12.5959C48.5492 11.8814 48.7601 10.7514 49.1977 10.5188C50.9762 9.63393 51.585 8.25054 51.2707 5.94906C57.1433 6.21078 62.9205 5.18882 68.463 7.39891C72.6486 9.06063 75.1712 13.8048 74.9961 19.1805C74.8211 24.4647 72.398 28.133 67.9815 29.7781C67.5837 29.9318 67.146 30.0689 66.39 30.339C68.5187 33.8161 70.4921 37.1603 72.585 40.4173C74.1088 42.831 76.0744 44.4511 79.1659 42.9057Z" fill="#ADAEB3"/>
<path d="M36.2469 20.6795V43.9934H31.1223C31.0308 43.2041 30.9512 42.4564 30.8279 41.3763C28.2456 44.3591 25.1223 45.1151 21.6767 44.6706C19.0871 44.3685 16.701 43.0605 14.9923 41.0065C11.0414 36.3246 11.0653 28.2943 15.0162 23.7578C19.2257 18.9305 24.9631 18.6688 30.8796 23.1056C30.9592 22.3038 31.0347 21.5561 31.1223 20.6795H36.2469ZM24.1316 39.565C27.9194 39.565 30.7921 36.5074 30.8478 32.4196C30.8567 31.488 30.6882 30.5638 30.3518 29.7008C30.0155 28.8379 29.5181 28.0535 28.8886 27.3932C28.2592 26.7328 27.5102 26.2098 26.6853 25.8546C25.8604 25.4993 24.9761 25.319 24.0838 25.324C23.1902 25.3299 22.3064 25.5207 21.4838 25.8853C20.6611 26.2499 19.9159 26.7811 19.291 27.4482C18.6661 28.1153 18.1741 28.9051 17.8433 29.7719C17.5125 30.6388 17.3495 31.5655 17.3637 32.4985C17.3447 33.4319 17.5067 34.3597 17.8401 35.226C18.1735 36.0923 18.6714 36.8793 19.3037 37.5394C19.936 38.1996 20.6896 38.7194 21.5193 39.0675C22.349 39.4156 23.2376 39.5848 24.1316 39.565Z" fill="#ADAEB3"/>
<path d="M127.472 36.9931H121.842V10.0898H127.329V23.0513C129.991 20.5088 132.756 19.7278 135.848 20.1723C139.854 20.7373 142.612 23.1011 142.898 27.2928C143.26 32.7848 142.986 38.3183 142.986 43.9972H137.666C137.666 41.1432 137.666 38.2519 137.666 35.3563C137.666 33.6157 137.722 31.8667 137.574 30.1385C137.312 27.0519 135.533 25.4441 132.609 25.4483C129.617 25.4483 127.667 27.2263 127.496 30.2922C127.377 32.4233 127.472 34.5587 127.472 36.9931Z" fill="#ADAEB3"/>
<path d="M168.446 34.031H151.059C151.003 36.6067 152.113 38.1854 154.003 39.145C156.339 40.3373 159.024 40.6821 160.851 38.7296C162.971 36.4613 165.247 36.8726 167.706 36.9183C166.592 42.107 160.5 45.688 154.974 44.5082C151.997 43.8896 149.373 42.0711 147.671 39.4466C145.97 36.8222 145.327 33.6032 145.882 30.4874C147.076 23.666 152.873 19.3414 159.382 20.434C165.267 21.4186 169.389 27.3634 168.446 34.031ZM163.178 29.7812C162.382 26.4951 159.876 24.7088 156.685 24.9788C153.693 25.2322 151.672 27.056 151.413 29.7812H163.178Z" fill="#ADAEB3"/>
<path d="M79.2533 20.5586H84.6406C84.6406 23.1592 84.6406 25.6684 84.6406 28.1735C84.6406 30.4749 84.5809 32.7764 84.6883 35.0695C84.8316 38.0274 86.5464 39.7722 89.1087 39.7681C91.7347 39.7681 93.4178 38.1064 93.4854 35.0862C93.5928 31.123 93.5212 27.1598 93.5292 23.1925V20.5586H98.9045C98.9045 21.7467 98.9045 22.8974 98.9045 24.0482C98.9045 28.0114 99.0318 31.9871 98.813 35.9378C98.5146 41.4174 94.5119 44.8114 88.8382 44.7075C83.2918 44.6037 79.4443 41.1058 79.2891 35.7176C79.134 30.7408 79.2533 25.7556 79.2533 20.5586Z" fill="#ADAEB3"/>
<path d="M127.106 39.8765C125.149 46.3365 118.353 49.8469 111.78 48.3845C105.068 46.9015 100.345 39.8765 101.28 32.7685C102.235 25.4943 107.996 20.1935 114.772 20.4968V24.8753C108.645 26.8569 106.059 30.1721 106.592 35.5436C106.946 39.1122 108.581 41.8831 111.896 43.2083C115.079 44.4878 117.784 43.5365 120.589 41.4718C122.193 40.292 124.679 40.4166 127.106 39.8765Z" fill="#ADAEB3"/>
<path d="M10.8185 39.8472C10.8185 41.1516 10.8185 42.3398 10.8185 43.5196C10.8016 43.8195 10.7657 44.1178 10.7111 44.4128C9.54348 44.5819 8.35514 44.501 7.2185 44.1747C6.08186 43.8485 5.02077 43.2838 4.10003 42.5152C3.17928 41.7467 2.41814 40.7903 1.86308 39.7045C1.30802 38.6187 0.970666 37.4262 0.871591 36.1997C0.473713 31.1605 0.644827 26.0757 0.601061 21.0116C0.569231 17.3891 0.601061 13.7623 0.601061 10.0234H6.32255V12.5784C6.32255 19.4718 6.32255 26.3624 6.32255 33.2502C6.31857 37.2923 7.10236 38.4597 10.8185 39.8472Z" fill="#ADAEB3"/>
<path d="M40.1022 4.66917C40.1022 2.69172 42.39 0.120214 44.2441 0.003894C46.1619 -0.120735 48.5929 2.77064 48.585 5.17182C48.585 7.12019 46.2494 9.74156 44.4311 9.85373C42.5372 9.9659 40.0784 7.03712 40.1022 4.66917Z" fill="#ADAEB3"/>
</g>
<defs>
<clipPath id="clip0_3689_12153">
<rect width="168" height="49" fill="white" transform="translate(0.577148)"/>
</clipPath>
</defs>
</svg>
