<svg width="148" height="61" viewBox="0 0 148 61" fill="none" xmlns="http://www.w3.org/2000/svg">
<path d="M104.477 1.11994C102.683 1.9998 102.078 2.93832 101.981 4.85446C101.883 6.49687 102.195 7.35718 103.209 8.39347C104.906 10.075 107.832 10.1923 109.762 8.64765C110.484 8.06107 111.147 6.65329 111.245 5.5388C111.44 3.40758 110.308 1.64786 108.222 0.865757C106.778 0.318287 105.959 0.376945 104.477 1.11994Z" fill="#ADAEB3"/>
<path d="M139.737 9.30882L139.679 17.5795L139.133 17.6382C138.665 17.6968 138.353 17.5013 137.358 16.5432C135.934 15.155 134.745 14.5293 132.6 13.9819C129.733 13.2389 126.71 13.6104 123.804 15.0377C122.302 15.7807 119.962 17.8533 118.987 19.2806C118.675 19.7498 118.363 20.1604 118.285 20.2191C118.031 20.4146 116.919 23.0738 116.412 24.7162C115.944 26.2413 115.905 26.6714 115.905 29.7021C115.905 32.7718 115.944 33.1629 116.432 34.7857C117.426 38.0314 118.733 40.1822 120.956 42.2743C122.575 43.7799 124.135 44.6988 126.281 45.3636C128.465 46.0479 131.897 46.0284 133.926 45.3441C135.642 44.7575 137.027 43.8972 137.904 42.8609C138.431 42.2352 138.684 42.0983 139.133 42.157C139.679 42.2157 139.679 42.2352 139.737 43.6234L139.796 45.0508H143.677H147.578V23.0542V1.05766H143.677H139.776L139.737 9.30882ZM135.252 21.7638C137.319 22.8 138.879 24.638 139.503 26.7887C139.913 28.1965 139.952 30.8752 139.601 32.3416C139.035 34.6488 137.28 36.7996 135.115 37.875C133.926 38.4616 133.711 38.5007 131.78 38.5007C129.928 38.5007 129.616 38.442 128.582 37.9337C126.183 36.7801 124.623 34.7857 123.979 32.0875C123.492 29.9562 123.492 29.5261 123.979 27.4535C124.564 25.029 126.047 22.9565 127.899 21.9593C129.323 21.1967 130.318 21.0012 132.17 21.0599C133.77 21.1381 134.179 21.2163 135.252 21.7638Z" fill="#ADAEB3"/>
<path d="M74.6767 13.2807C69.0989 14.493 64.6328 20.0263 63.8917 26.596C63.7747 27.6518 63.6382 28.5903 63.5992 28.6685C63.4042 28.9814 64.3403 34.5734 64.6913 35.2577C64.7889 35.4337 65.1204 36.1767 65.4519 36.9197C66.7586 39.8135 69.1964 42.3944 71.9073 43.724C74.0331 44.7602 75.0667 45.0535 77.056 45.1904C80.547 45.4055 83.1993 44.6038 85.3056 42.629C86.2222 41.7883 86.6318 41.5341 87.0998 41.5341H87.7044V45.2295C87.7044 48.5339 87.6654 49.0422 87.2949 49.883C86.8658 50.8997 85.9492 51.9751 85.1496 52.3857C83.6089 53.2069 83.0823 53.2656 77.5241 53.2656H72.1023V56.8828V60.5H78.6942C83.8039 60.5 85.5396 60.4218 86.4953 60.2067C89.3036 59.5419 92.385 57.352 93.6137 55.1426C94.4718 53.6371 94.5888 53.3829 94.9984 52.3075C95.408 51.2321 95.408 51.017 95.4665 32.3835L95.525 13.574H91.7025H87.8994V15.2164C87.8994 16.5265 87.8409 16.8784 87.5874 16.9762C87.0023 17.1912 86.5928 17.0935 86.1247 16.5851C85.4226 15.8226 83.6284 14.4734 82.6532 13.9846C80.82 13.0461 77.251 12.7333 74.6767 13.2807ZM82.0682 20.6911C84.623 21.4732 86.1637 22.9397 87.2559 25.6184C87.7434 26.7915 87.8019 27.2217 87.8019 29.0205C87.8019 30.7998 87.7239 31.2495 87.2559 32.4422C86.1832 35.16 84.35 36.9392 81.9121 37.5845C77.9336 38.6403 74.4036 36.9784 72.5314 33.1265C71.8293 31.6796 71.8293 31.621 71.8098 29.216C71.8098 27.0652 71.8683 26.6351 72.2779 25.5988C73.214 23.3307 74.8132 21.6492 76.705 20.9453C78.9673 20.1046 80.0204 20.0459 82.0682 20.6911Z" fill="#ADAEB3"/>
<path d="M12.8145 13.9822C7.84134 15.0576 3.88231 18.01 1.91254 22.0769C1.5615 22.8395 1.19095 23.602 1.09343 23.7976C0.878906 24.2082 0.469351 26.2025 0.137807 28.4315C-0.0767221 29.9175 -0.0572194 30.3476 0.31333 32.4593C0.800895 35.4313 1.62 37.5039 3.02419 39.4787C5.50102 42.959 8.79696 44.836 13.7896 45.6377C16.6565 46.107 20.5375 45.4031 23.6385 43.8584C24.7696 43.3109 25.6862 42.8417 25.6862 42.8221C25.6862 42.8026 23.9115 39.0681 23.3849 38.0122C23.2094 37.6407 23.0534 37.3083 23.0339 37.2692C23.0144 37.2497 22.4488 37.4843 21.7662 37.8167C19.6209 38.8139 17.2611 39.0485 14.7453 38.5206C12.0539 37.934 10.1426 36.4285 8.93348 33.9062C8.23139 32.4398 8.23139 32.4202 8.23139 29.8002C8.23139 27.3366 8.2704 27.0628 8.79697 25.831C10.3572 22.116 14.2772 20.1804 18.9968 20.806C19.933 20.9233 21.0446 21.1971 21.4737 21.3926C22.9754 22.0574 22.9364 22.0965 23.8725 19.8284C24.36 18.6944 24.9061 17.3061 25.1011 16.7391L25.4717 15.7028L24.5551 15.3118C24.048 15.0967 23.5019 14.8425 23.3459 14.7643C23.1899 14.6665 22.3513 14.4515 21.4932 14.2755C20.635 14.08 19.6209 13.8453 19.2309 13.7476C18.0802 13.4543 14.6282 13.5912 12.8145 13.9822Z" fill="#ADAEB3"/>
<path d="M40.8981 13.7503C40.7421 13.8285 40.079 14.024 39.4354 14.1609C36.5685 14.767 33.4091 16.8591 31.4783 19.4205C29.0795 22.5685 28.1434 25.5209 28.1629 29.8029C28.1824 32.5402 28.4359 34.1044 29.255 36.1575C31.6149 42.1405 37.2316 45.8359 43.999 45.8359C48.8162 45.8359 53.0287 44.1153 55.5641 41.1042C56.4417 40.0875 57.8654 37.6043 57.8654 37.1155C57.8654 36.9787 57.3973 36.7831 56.7537 36.6463C55.2325 36.3334 53.4578 35.9228 52.5022 35.6882C51.2345 35.3558 50.9809 35.434 50.3764 36.2748C49.5573 37.4284 48.0946 38.3082 46.1833 38.7775C44.233 39.2663 43.4919 39.2859 41.9707 38.8948C38.5773 38.0149 36.51 35.8055 36.12 32.6576L35.9834 31.5626H47.5095H59.0355V29.5878C59.0355 27.0069 58.743 25.2276 57.9824 23.1551C55.7006 17.0351 50.4739 13.5548 43.5505 13.5743C42.2438 13.5743 41.0541 13.6525 40.8981 13.7503ZM47.1779 20.6132C49.3427 21.7277 50.9029 23.683 51.1565 25.5796L51.293 26.479H43.648H35.9834L36.12 25.8728C36.5685 23.8589 38.1287 21.7864 40.0205 20.7305C41.3857 19.9875 42.0878 19.8311 44.155 19.9093C45.7152 19.968 46.0858 20.0462 47.1779 20.6132Z" fill="#ADAEB3"/>
<path d="M102.722 29.9017V44.8594H106.525H110.328V29.9017V14.9441H106.525H102.722V29.9017Z" fill="#ADAEB3"/>
</svg>
