<svg width="200" height="41" viewBox="0 0 200 41" fill="none" xmlns="http://www.w3.org/2000/svg">
<g clip-path="url(#clip0_2892_9031)">
<path d="M181.462 1.20315C194.459 1.18101 203.067 13.9302 198.794 27.1061C196.089 35.4515 190.277 39.5069 182.692 39.997C175.152 40.4872 168.785 37.4046 165.191 29.5552C161.858 22.2786 162.393 14.9577 167.006 8.44431C170.647 3.28174 175.706 1.24744 181.462 1.20315ZM171.102 20.4347C171.053 27.0013 175.842 32.5241 181.593 32.5403C187.215 32.5492 191.947 27.0913 191.931 20.6134C191.914 13.9406 187.433 8.81637 181.608 8.81194C175.751 8.79423 171.15 13.8918 171.102 20.4347Z" fill="#ADAEB3"/>
<path d="M149.304 13.5549C146.593 10.66 143.7 8.54295 139.903 8.75702C135.661 8.9947 132.598 11.2889 130.92 15.6734C129.21 20.1436 129.792 24.4322 132.553 28.1126C135.276 31.7384 138.868 32.8515 142.971 31.7413C144.825 31.2394 146.533 30.3167 147.953 28.8995C148.936 27.9207 149.501 27.9739 150.432 29.0619C154.246 33.5232 154.233 33.9248 149.458 37.0456C138.981 43.8912 125.816 38.5219 122.839 26.0384C121.091 18.7146 122.294 11.9532 127.359 6.69908C132.779 1.07443 139.247 -0.0593693 146.225 2.29974C148.538 3.08217 150.592 4.44775 152.483 6.15138C153.424 7.00025 153.815 7.6985 152.795 8.88839C151.561 10.3292 150.49 11.9502 149.304 13.5549Z" fill="#ADAEB3"/>
<path d="M5.07317 0.778451C8.67836 0.778451 9.43933 1.36897 10.5088 5.39776C11.7313 10.0008 12.8695 14.6334 14.044 19.2527C14.2087 19.8979 14.3694 20.5459 14.5379 21.1896C14.7881 22.1433 15.1356 23.1649 16.1415 23.1309C17.049 23.0999 17.2707 22.0089 17.4807 21.2221C18.9067 15.8838 20.3664 10.5544 21.629 5.16597C22.2876 2.34479 23.5736 0.821255 26.2273 0.769585C29.918 0.697246 31.1755 1.40589 32.0803 4.85154C33.3573 9.71591 34.4721 14.6364 35.6129 19.5465C35.7672 20.2123 35.8955 20.8058 36.3467 21.3181C36.8652 21.9086 37.1089 22.9331 38.0864 22.7367C38.9939 22.5537 39.2531 21.6428 39.467 20.8294C40.4004 17.3439 41.2819 13.8421 42.1894 10.3478C42.7507 8.16875 43.5947 6.12999 43.898 3.80632C44.2325 1.23905 48.5844 -0.406996 51.0773 1.04862C53.4224 2.41714 52.489 4.4367 51.7721 6.69247C48.8397 15.8809 46.1809 25.1815 43.4093 34.4289C42.8907 36.1503 42.4772 37.9263 41.011 39.0497C36.4854 42.5219 32.2203 39.4926 31.2636 32.7578C30.6712 28.5858 29.052 24.5969 27.8646 20.5371C27.7038 19.985 27.2903 19.3472 26.7536 19.5878C25.8137 20.0086 25.045 20.6641 24.7338 21.9499C23.8186 25.7351 22.7893 29.4789 21.8041 33.2479C21.6122 33.986 21.4826 34.7389 21.2583 35.4623C20.1123 39.1398 18.9248 40.2131 16.03 40.2175C12.2991 40.2175 11.1389 39.3863 9.95528 35.4461C7.05229 25.7853 4.18386 16.1112 1.35001 6.42377C0.0951282 2.16173 1.02722 0.779927 5.07317 0.778451ZM37.7143 37.2989C40.1165 37.7417 41.0408 35.8801 41.7071 33.6081C44.1184 25.401 46.5383 17.1972 48.9668 8.99697C49.2883 7.90451 49.6759 6.82386 49.8742 5.70188C50.048 4.74377 50.0039 3.65426 48.9409 3.32948C48.0191 3.04898 47.0378 3.02536 46.4596 4.17834C46.1239 4.84858 45.6818 5.51881 45.5625 6.24515C44.8845 10.3241 42.8622 13.8849 42.1077 17.9373C41.6371 20.4618 40.9566 22.9375 40.3784 25.4384C40.0556 26.8334 39.5163 27.9717 38.0449 28.0543C36.4517 28.1414 35.8087 27.0283 35.4146 25.4959C33.8006 19.2365 32.1309 12.9947 30.5351 6.73085C29.9582 4.46918 29.0611 3.06227 26.646 3.10508C24.1479 3.14937 23.794 5.02427 23.3027 6.99807C21.7729 13.0907 20.2497 19.1848 18.6915 25.2686C18.3155 26.7449 17.5248 27.9968 16.0676 27.9879C14.6105 27.979 13.8729 26.708 13.4516 25.2494C13.1093 24.0684 12.7775 22.8726 12.4676 21.6738C11.1077 16.4241 9.78027 11.1627 8.39057 5.92185C7.81628 3.75466 6.39676 2.63564 4.47814 3.30439C2.35858 4.04254 3.39049 5.91595 3.77162 7.407C6.04415 16.3208 9.91121 24.6441 11.45 33.8325C11.7741 35.7694 12.6413 37.8185 14.6378 37.727C16.7638 37.634 18.895 37.2324 19.621 33.9816C20.9277 28.1311 22.6402 22.3972 24.1699 16.6087C24.5588 15.1324 25.2796 13.6148 26.6421 13.755C28.1031 13.9027 29.1557 15.3317 29.4098 17.0914C30.1371 22.127 31.4983 26.9973 33.0397 31.7362C33.7552 33.9595 34.008 37.6325 37.7143 37.2989Z" fill="#ADAEB3"/>
<path d="M88.4513 20.5213C88.4513 14.9277 88.507 9.33405 88.4201 3.74188C88.3916 1.86109 88.9296 1.26763 90.6149 1.23958C96.7895 1.13329 96.7895 1.06537 96.7895 7.90796C96.7895 14.9469 96.8569 21.9873 96.7519 29.0189C96.7169 31.3307 97.4506 32.0556 99.4366 31.9818C103.025 31.8474 106.622 32.0113 110.212 31.9139C111.816 31.8711 112.525 32.342 112.479 34.3276C112.334 40.7583 113.028 39.5241 107.924 39.592C102.194 39.6659 96.4615 39.5359 90.7329 39.6496C88.9179 39.6865 88.38 39.006 88.4162 37.0041C88.5174 31.5153 88.4513 26.0176 88.4513 20.5213Z" fill="#ADAEB3"/>
<path d="M73.2357 20.5213C73.2357 25.8109 73.1968 31.1004 73.25 36.3885C73.2759 38.9365 72.3632 39.967 70.0311 39.9596C64.5747 39.9404 64.5708 40.0393 64.5708 33.7843C64.5708 24.1678 64.5734 14.5508 64.5786 4.93324C64.5786 1.44478 65.3395 0.737633 68.9123 0.72287C72.4462 0.708107 73.224 1.45213 73.2331 4.94207C73.2474 10.1342 73.237 15.3278 73.2357 20.5213Z" fill="#ADAEB3"/>
<path d="M37.7145 37.2967C34.0082 37.6304 33.7554 33.9573 33.0385 31.7414C31.5023 27.0025 30.1411 22.1323 29.4087 17.0967C29.1494 15.3369 28.102 13.9123 26.6409 13.7602C25.2785 13.6126 24.5577 15.1421 24.1688 16.6139C22.6391 22.4024 20.9279 28.1363 19.6198 33.9869C18.8939 37.2347 16.7678 37.6392 14.6366 37.7322C12.6402 37.8193 11.7729 35.7746 11.4488 33.8377C9.91006 24.6434 6.043 16.3201 3.77047 7.41221C3.38934 5.92116 2.35744 4.05073 4.47699 3.30964C6.39561 2.64088 7.81513 3.75252 8.38942 5.92709C9.77913 11.1679 11.1118 16.4294 12.4665 21.6791C12.7763 22.8778 13.1082 24.0692 13.4504 25.2546C13.8718 26.7132 14.6172 27.9858 16.0665 27.9932C17.5158 28.0005 18.3144 26.7442 18.6903 25.2738C20.246 19.19 21.7718 13.0959 23.3015 7.00328C23.7967 5.03096 24.1467 3.15461 26.6448 3.11033C29.06 3.06751 29.957 4.47442 30.5339 6.73609C32.1298 13 33.7995 19.2417 35.4134 25.5012C35.8024 27.0335 36.4505 28.1467 38.0438 28.0596C39.5138 27.9769 40.0531 26.8387 40.3772 25.4436C40.9554 22.9428 41.636 20.467 42.1066 17.9426C42.8611 13.8902 44.8834 10.3294 45.5614 6.25039C45.682 5.52406 46.1227 4.85382 46.4585 4.18359C47.0367 3.03061 48.0141 3.05423 48.9397 3.33472C50.004 3.65951 50.0468 4.74902 49.8731 5.70713C49.6696 6.82911 49.282 7.90972 48.9656 9.00217C46.5458 17.2054 44.1259 25.4091 41.706 33.6133C41.041 35.878 40.1167 37.7278 37.7145 37.2967Z" fill="#ADAEB3"/>
</g>
<defs>
<clipPath id="clip0_2892_9031">
<rect width="199.07" height="40" fill="white" transform="translate(0.830078 0.5)"/>
</clipPath>
</defs>
</svg>
